<svg viewBox="0 0 15 13" xmlns="http://www.w3.org/2000/svg" fill-rule="evenodd" clip-rule="evenodd" stroke-linejoin="round" stroke-miterlimit="1.414"><path d="M13.6 9.688l-.215 1.252c-.065.48-.498.873-.96.873H2.576c-.464 0-.898-.393-.96-.873l-.218-1.252c-.066-.48.263-.875.728-.875h10.746c.465 0 .79.394.726.875zM14.737 7.5l-2.623-6.243C11.904.84 11.354.5 10.89.5H9.184L9.5 3.887h2.25L7.5 7.41 3.25 3.887H5.5L5.818.5H4.11c-.464 0-1.016.34-1.223.757L.264 7.5c-.208.417-.315 1.133-.24 1.593l.567 3.07c.078.46.52.837.986.837h11.848c.465 0 .908-.377.985-.837l.565-3.07c.077-.46-.03-1.176-.238-1.593z" fill="#030404" fill-rule="nonzero"/></svg>