<?xml version="1.0" standalone="no"?><!DOCTYPE svg PUBLIC "-//W3C//DTD SVG 1.1//EN" "http://www.w3.org/Graphics/SVG/1.1/DTD/svg11.dtd"><svg width="100%" height="100%" viewBox="0 0 15 13" version="1.1" xmlns="http://www.w3.org/2000/svg" xmlns:xlink="http://www.w3.org/1999/xlink" xml:space="preserve" style="fill-rule:evenodd;clip-rule:evenodd;stroke-linejoin:round;stroke-miterlimit:1.41421;"><path id="Layer1" d="M13.6004,9.68846l-0.214997,1.25162c-0.0649795,0.479982 -0.498312,0.873297 -0.961632,0.873297l-9.84629,0c-0.464947,0 -0.89828,-0.393315 -0.961632,-0.873297l-0.217195,-1.25162c-0.0644506,-0.48165 0.263865,-0.874966 0.728854,-0.874966l10.7462,0c0.464989,0 0.791635,0.393315 0.726656,0.874966l-2.5e-06,0ZM14.737,7.50021l-2.62322,-6.2431c-0.208325,-0.41665 -0.758881,-0.756624 -1.2233,-0.756624l-1.7066,0l0.316637,3.38652l2.24991,0l-4.24984,3.5232l-4.24984,-3.5232l2.24991,0l0.316679,-3.38652l-1.70826,0c-0.46332,0 -1.01497,0.339972 -1.22163,0.756624l-2.62322,6.2431c-0.208325,0.41665 -0.31501,1.13328 -0.24055,1.59326l0.567197,3.06989c0.0766571,0.459984 0.519999,0.836637 0.984946,0.836637l11.8479,0c0.464989,0 0.90829,-0.376654 0.984946,-0.836637l0.566669,-3.06989c0.0766571,-0.459984 -0.0316556,-1.17661 -0.238312,-1.59326l-6.25e-06,-8.88178e-16Z" style="fill:#030404;fill-rule:nonzero;"/></svg>